<svg width="540" height="540" viewBox="0 0 540 540" fill="none" xmlns="http://www.w3.org/2000/svg">
<g clip-path="url(#clip0_1180_1623)">
<rect width="540" height="540" fill="url(#paint0_linear_1180_1623)"/>
<g clip-path="url(#clip1_1180_1623)">
<path d="M454.06 419.34C454.42 421.55 454.61 423.48 454.61 425.13V429.82C454.61 450.78 449.18 466.04 438.34 475.61C427.49 485.17 413.24 489.95 395.59 489.95C377.94 489.95 361.2 485.26 343.18 475.88C325.16 466.5 306.77 452.99 288.01 435.33L263.74 412.71H259.33C234.32 412.71 211.14 408.75 189.82 400.85C168.49 392.95 150.1 381.46 134.65 366.37C119.2 351.29 107.07 332.72 98.24 310.65C89.41 288.6 85 263.41 85 235.09C85 206.77 89.5 181.03 98.52 158.96C107.53 136.89 119.85 118.41 135.48 103.52C151.11 88.62 169.49 77.32 190.65 69.59C211.79 61.86 234.68 58 259.33 58C283.98 58 306.86 61.86 328.01 69.59C349.15 77.31 367.63 88.62 383.45 103.52C399.26 118.42 411.67 136.9 420.69 158.96C429.7 181.03 434.21 206.4 434.21 235.09C434.21 271.14 427.59 301.76 414.35 326.94C401.11 352.14 383.09 371.9 360.29 386.24C360.29 386.24 421.35 438.97 454.07 419.34H454.06ZM184.3 235.09C184.3 268.56 191.1 293.57 204.71 310.12C218.31 326.67 236.52 334.94 259.33 334.94C282.14 334.94 300.89 326.67 314.5 310.12C328.1 293.57 334.91 268.56 334.91 235.09C334.91 201.62 328.2 177.16 314.77 160.61C301.34 144.06 283.05 135.78 259.88 135.78C236.71 135.78 218.78 143.97 204.99 160.33C191.2 176.7 184.3 201.62 184.3 235.08V235.09Z" fill="white"/>
</g>
</g>
<defs>
<linearGradient id="paint0_linear_1180_1623" x1="270" y1="-4.85778e-06" x2="433" y2="593.5" gradientUnits="userSpaceOnUse">
<stop stop-color="#9731E2"/>
<stop offset="1" stop-color="#4E30E4"/>
</linearGradient>
<clipPath id="clip0_1180_1623">
<rect width="540" height="540" fill="white"/>
</clipPath>
<clipPath id="clip1_1180_1623">
<rect width="369.62" height="431.96" fill="white" transform="translate(85 58)"/>
</clipPath>
</defs>
</svg>
