<svg width="505" height="505" viewBox="0 0 505 505" fill="none" xmlns="http://www.w3.org/2000/svg">
<g filter="url(#filter0_d_1456_2440)">
<path d="M252.529 422.663C346.491 422.663 422.663 346.491 422.663 252.529C422.663 158.567 346.491 82.395 252.529 82.395C158.567 82.395 82.395 158.567 82.395 252.529C82.395 346.491 158.567 422.663 252.529 422.663Z" fill="url(#paint0_linear_1456_2440)"/>
</g>
<path d="M267.269 305.331C267.402 306.149 267.472 306.863 267.472 307.478V309.219C267.472 316.995 265.458 322.653 261.437 326.199C257.409 329.744 252.129 331.52 245.583 331.52C239.037 331.52 232.828 329.779 226.148 326.303C219.463 322.827 212.645 317.813 205.687 311.268L196.686 302.876H195.05C185.771 302.876 177.182 301.408 169.273 298.478C161.363 295.547 154.544 291.288 148.811 285.688C143.083 280.099 138.58 273.205 135.307 265.023C132.034 256.841 130.398 247.498 130.398 236.994C130.398 226.491 132.069 216.945 135.412 208.762C138.754 200.58 143.321 193.727 149.119 188.202C154.916 182.678 161.734 178.482 169.58 175.621C177.42 172.754 185.91 171.327 195.05 171.327C204.19 171.327 212.679 172.76 220.519 175.621C228.359 178.488 235.213 182.678 241.08 188.202C246.941 193.727 251.548 200.58 254.891 208.762C258.233 216.945 259.905 226.357 259.905 236.994C259.905 250.364 257.45 261.715 252.541 271.058C247.631 280.401 240.946 287.73 232.491 293.052C232.491 293.052 255.135 312.608 267.275 305.325L267.269 305.331ZM167.224 237C167.224 249.413 169.748 258.686 174.791 264.826C179.834 270.965 186.589 274.029 195.044 274.029C203.499 274.029 210.457 270.96 215.506 264.826C220.548 258.686 223.079 249.413 223.079 237C223.079 224.587 220.589 215.517 215.61 209.377C210.631 203.238 203.847 200.168 195.253 200.168C186.659 200.168 180.008 203.203 174.896 209.273C169.783 215.343 167.224 224.587 167.224 236.994V237Z" fill="white"/>
<path d="M293.371 292.802C292.483 292.965 291.183 293.185 289.454 293.464C287.725 293.742 285.978 293.887 284.208 293.887C282.438 293.887 280.854 293.766 279.444 293.528C278.039 293.284 276.85 292.802 275.886 292.083C274.923 291.363 274.18 290.377 273.658 289.129C273.136 287.881 272.875 286.256 272.875 284.248V214.327C273.757 214.165 275.062 213.944 276.792 213.666C278.521 213.387 280.268 213.242 282.038 213.242C283.807 213.242 285.392 213.364 286.802 213.602C288.206 213.846 289.396 214.327 290.359 215.047C291.322 215.772 292.065 216.753 292.587 218.001C293.11 219.248 293.371 220.873 293.371 222.881V292.802Z" fill="white"/>
<path d="M315.434 277.975C314.546 275.968 313.606 273.716 312.602 271.226C311.598 268.737 310.554 265.882 309.469 262.667C308.383 259.452 307.258 255.779 306.091 251.635C304.925 247.498 303.7 242.733 302.412 237.348C303.538 236.222 305.041 235.236 306.933 234.394C308.819 233.553 310.89 233.129 313.142 233.129C315.956 233.129 318.283 233.716 320.135 234.876C321.98 236.043 323.35 238.23 324.232 241.445L333.754 274.598H334.236C335.199 271.865 336.145 268.894 337.068 265.679C337.991 262.464 338.896 259.15 339.778 255.732C340.66 252.314 341.484 248.902 342.25 245.484C343.01 242.066 343.678 238.712 344.241 235.416C347.136 233.89 350.305 233.124 353.763 233.124C356.578 233.124 358.905 233.727 360.756 234.934C362.601 236.141 363.53 238.23 363.53 241.201C363.53 243.372 363.246 245.885 362.688 248.734C362.126 251.589 361.383 254.624 360.46 257.833C359.537 261.048 358.452 264.361 357.205 267.779C355.957 271.197 354.651 274.552 353.288 277.848C351.918 281.144 350.514 284.26 349.069 287.191C347.624 290.127 346.214 292.756 344.85 295.089C342.598 299.023 340.509 302.238 338.583 304.733C336.656 307.223 334.805 309.173 333.035 310.583C331.265 311.987 329.495 312.95 327.731 313.479C325.961 314.001 324.116 314.262 322.183 314.262C318.806 314.262 316.072 313.258 313.983 311.25C311.894 309.242 310.647 306.625 310.246 303.416C312.817 301.408 315.388 299.174 317.964 296.725C320.535 294.27 322.868 291.763 324.957 289.193C323.587 288.792 322.125 287.846 320.558 286.361C318.991 284.875 317.28 282.084 315.434 277.981V277.975Z" fill="white"/>
<path d="M256.655 183.316C256.986 183.188 257.508 183.043 258.228 182.875C258.947 182.707 259.702 182.585 260.485 182.509C261.234 182.44 261.907 182.422 262.51 182.457C263.114 182.492 263.624 182.62 264.048 182.846C264.472 183.066 264.808 183.391 265.052 183.809C265.296 184.227 265.441 184.79 265.487 185.486C265.714 189.096 265.824 190.901 266.05 194.504C266.12 195.653 266.48 196.448 267.118 196.907C267.75 197.359 268.638 197.562 269.787 197.522C270.484 197.499 271.047 197.429 271.482 197.307C271.917 197.185 272.259 197.069 272.497 196.953C272.428 191.069 272.387 188.127 272.317 182.242C272.654 182.155 273.188 182.062 273.919 181.981C274.65 181.9 275.405 181.859 276.182 181.871C276.925 181.883 277.598 181.941 278.184 182.039C278.776 182.138 279.264 182.329 279.658 182.596C280.053 182.863 280.349 183.223 280.546 183.664C280.744 184.105 280.825 184.68 280.79 185.382C280.54 190.489 280.413 193.042 280.163 198.143C280.094 199.541 279.397 200.551 278.173 201.213C277.134 201.775 275.91 202.234 274.505 202.553C273.101 202.872 271.586 203.052 269.938 203.104C268.377 203.157 266.932 203.07 265.592 202.826C264.245 202.582 263.056 202.17 262.017 201.567C260.978 200.969 260.119 200.156 259.446 199.118C258.773 198.085 258.332 196.791 258.141 195.235C257.543 190.465 257.247 188.08 256.655 183.31V183.316Z" fill="white"/>
<path d="M295.327 204.95C293.667 204.648 292.158 204.178 290.783 203.516C289.407 202.855 288.224 202.019 287.231 200.98C286.239 199.942 285.473 198.706 284.951 197.255C284.423 195.804 284.22 194.144 284.37 192.27C284.515 190.425 284.98 188.869 285.792 187.599C286.605 186.334 287.632 185.33 288.885 184.604C290.133 183.879 291.543 183.409 293.104 183.211C294.659 183.014 296.232 183.049 297.799 183.316C299.563 183.618 301.13 184.146 302.47 184.877C303.811 185.614 304.902 186.49 305.743 187.488C306.579 188.492 307.136 189.595 307.42 190.796C307.705 191.991 307.67 193.216 307.351 194.464C307.113 195.386 306.637 196.013 305.94 196.361C305.244 196.704 304.374 196.82 303.317 196.721C298.716 196.292 296.418 196.181 291.845 196.17C292.048 197.133 292.622 197.911 293.562 198.526C294.503 199.141 295.611 199.559 296.899 199.802C298.1 200.029 299.267 200.11 300.398 200.052C301.53 199.994 302.476 199.86 303.242 199.64C303.648 200.023 303.95 200.499 304.147 201.067C304.345 201.636 304.374 202.193 304.234 202.739C303.927 203.963 303.097 204.718 301.78 205.037C300.776 205.286 299.696 205.379 298.536 205.31C297.381 205.24 296.313 205.118 295.327 204.944V204.95ZM296.917 188.457C296.145 188.324 295.46 188.33 294.862 188.463C294.265 188.597 293.766 188.817 293.365 189.107C292.965 189.403 292.646 189.757 292.413 190.164C292.181 190.57 292.019 190.993 291.926 191.434C295.211 191.405 296.864 191.446 300.166 191.62C300.184 191.051 299.946 190.43 299.447 189.769C298.948 189.102 298.1 188.661 296.911 188.457H296.917Z" fill="white"/>
<path d="M313.322 187.836C313.664 187.848 314.198 187.918 314.912 188.045C315.626 188.173 316.357 188.359 317.094 188.591C317.796 188.817 318.417 189.067 318.945 189.334C319.473 189.601 319.891 189.92 320.187 190.291C320.483 190.663 320.663 191.086 320.721 191.568C320.779 192.05 320.686 192.618 320.454 193.28C319.235 196.68 318.626 198.386 317.407 201.787C317.018 202.866 317.03 203.743 317.425 204.41C317.819 205.077 318.545 205.605 319.607 206.023C320.245 206.273 320.79 206.429 321.237 206.493C321.684 206.551 322.038 206.58 322.305 206.569C324.562 201.137 325.688 198.415 327.946 192.984C328.288 193.036 328.81 193.164 329.507 193.367C330.203 193.576 330.911 193.837 331.619 194.156C332.298 194.458 332.884 194.777 333.383 195.102C333.882 195.427 334.259 195.792 334.515 196.193C334.77 196.593 334.898 197.04 334.903 197.522C334.903 198.009 334.758 198.566 334.451 199.193C332.205 203.783 331.085 206.081 328.839 210.671C328.224 211.931 327.185 212.581 325.798 212.708C324.626 212.819 323.321 212.761 321.916 212.499C320.506 212.238 319.055 211.809 317.535 211.217C316.096 210.654 314.819 210.01 313.699 209.261C312.573 208.513 311.668 207.666 310.966 206.708C310.264 205.751 309.811 204.671 309.614 203.458C309.416 202.245 309.527 200.888 309.968 199.379C311.314 194.76 311.981 192.456 313.328 187.836H313.322Z" fill="white"/>
<path d="M340.144 222.945C338.722 222.005 337.509 220.966 336.499 219.811C335.49 218.657 334.729 217.415 334.219 216.068C333.714 214.722 333.499 213.283 333.586 211.739C333.673 210.196 334.143 208.594 335.014 206.929C335.873 205.292 336.917 204.044 338.165 203.203C339.412 202.362 340.753 201.845 342.192 201.677C343.631 201.503 345.117 201.636 346.631 202.071C348.146 202.512 349.591 203.168 350.937 204.044C352.458 205.031 353.7 206.145 354.657 207.358C355.615 208.577 356.288 209.824 356.676 211.084C357.065 212.343 357.147 213.59 356.943 214.809C356.735 216.028 356.23 217.142 355.435 218.157C354.849 218.912 354.164 219.295 353.375 219.33C352.591 219.364 351.732 219.115 350.786 218.593C346.672 216.335 344.577 215.308 340.352 213.474C340.161 214.438 340.387 215.389 341.014 216.329C341.641 217.27 342.5 218.099 343.608 218.842C344.635 219.533 345.686 220.078 346.759 220.479C347.833 220.885 348.767 221.146 349.568 221.25C349.794 221.767 349.887 222.33 349.852 222.933C349.811 223.537 349.62 224.059 349.283 224.506C348.517 225.504 347.45 225.864 346.092 225.626C345.059 225.446 344.014 225.092 342.97 224.564C341.919 224.036 340.979 223.496 340.132 222.933L340.144 222.945ZM348.111 208.414C347.45 207.985 346.811 207.712 346.208 207.602C345.604 207.486 345.053 207.486 344.566 207.602C344.078 207.712 343.643 207.909 343.271 208.188C342.894 208.466 342.581 208.791 342.32 209.163C345.366 210.445 346.887 211.142 349.887 212.633C350.125 212.116 350.148 211.449 349.951 210.637C349.748 209.824 349.138 209.076 348.117 208.414H348.111Z" fill="white"/>
<defs>
<filter id="filter0_d_1456_2440" x="0.495018" y="0.495018" width="504.068" height="504.068" filterUnits="userSpaceOnUse" color-interpolation-filters="sRGB">
<feFlood flood-opacity="0" result="BackgroundImageFix"/>
<feColorMatrix in="SourceAlpha" type="matrix" values="0 0 0 0 0 0 0 0 0 0 0 0 0 0 0 0 0 0 127 0" result="hardAlpha"/>
<feOffset/>
<feGaussianBlur stdDeviation="40.95"/>
<feColorMatrix type="matrix" values="0 0 0 0 0.65098 0 0 0 0 0.364706 0 0 0 0 0.956863 0 0 0 0.7 0"/>
<feBlend mode="normal" in2="BackgroundImageFix" result="effect1_dropShadow_1456_2440"/>
<feBlend mode="normal" in="SourceGraphic" in2="effect1_dropShadow_1456_2440" result="shape"/>
</filter>
<linearGradient id="paint0_linear_1456_2440" x1="203.853" y1="93.4614" x2="304.292" y2="421.671" gradientUnits="userSpaceOnUse">
<stop stop-color="#9731E2"/>
<stop offset="0.48" stop-color="#7430E2"/>
<stop offset="1" stop-color="#4B30E4"/>
</linearGradient>
</defs>
</svg>
